<?xml version="1.0" encoding="UTF-8"?>
<svg id="Layer_1" data-name="Layer 1" xmlns="http://www.w3.org/2000/svg" viewBox="0 0 26 26">
  <defs>
    <style>
      .cls-1 {
        fill: #fff;
      }
    </style>
  </defs>
  <path class="cls-1" d="m13,2.34c3.47,0,3.88.01,5.25.08,1.27.06,1.96.27,2.41.45.61.24,1.04.52,1.49.97.46.46.74.89.97,1.49.18.46.39,1.15.45,2.41.06,1.37.08,1.78.08,5.25s-.01,3.88-.08,5.25c-.06,1.27-.27,1.96-.45,2.41-.24.61-.52,1.04-.97,1.5-.45.45-.89.74-1.49.97-.46.18-1.15.39-2.41.45-1.37.06-1.78.08-5.25.08s-3.88-.01-5.25-.08c-1.27-.06-1.96-.27-2.41-.45-.61-.24-1.04-.52-1.5-.97-.45-.46-.74-.89-.97-1.5-.18-.46-.39-1.15-.45-2.41-.06-1.37-.08-1.78-.08-5.25s.01-3.88.08-5.25c.06-1.27.27-1.96.45-2.41.24-.61.52-1.04.97-1.49.46-.46.89-.74,1.5-.97.46-.18,1.15-.39,2.41-.45,1.37-.06,1.78-.08,5.25-.08m0-2.34c-3.53,0-3.97.02-5.36.08-1.38.06-2.33.28-3.16.6-.86.33-1.58.78-2.3,1.5-.72.72-1.17,1.45-1.5,2.3-.32.83-.54,1.77-.6,3.16-.06,1.39-.08,1.83-.08,5.36s.01,3.97.08,5.36c.06,1.38.28,2.33.6,3.16.33.85.78,1.58,1.5,2.3s1.45,1.17,2.3,1.5c.83.32,1.77.54,3.16.6,1.39.06,1.83.08,5.36.08s3.97-.01,5.36-.08c1.38-.06,2.33-.28,3.16-.6.86-.33,1.58-.78,2.3-1.5.72-.72,1.17-1.45,1.5-2.3.32-.83.54-1.77.6-3.16.06-1.39.08-1.83.08-5.36s-.01-3.97-.08-5.36c-.06-1.38-.28-2.33-.6-3.16-.33-.85-.78-1.58-1.5-2.3-.72-.72-1.45-1.17-2.3-1.5-.83-.32-1.77-.54-3.16-.6-1.39-.06-1.83-.08-5.36-.08"/>
  <path class="cls-1" d="m13,6.33c-3.69,0-6.68,2.99-6.68,6.68s2.99,6.68,6.68,6.68,6.68-2.99,6.68-6.68-2.99-6.68-6.68-6.68m0,11.01c-2.39,0-4.33-1.94-4.33-4.33s1.94-4.33,4.33-4.33,4.33,1.94,4.33,4.33-1.94,4.33-4.33,4.33"/>
  <path class="cls-1" d="m21.5,6.06c0,.86-.7,1.56-1.56,1.56s-1.56-.7-1.56-1.56.7-1.56,1.56-1.56,1.56.7,1.56,1.56"/>
</svg>