<?xml version="1.0" encoding="UTF-8"?>
<svg id="Layer_1" data-name="Layer 1" xmlns="http://www.w3.org/2000/svg" viewBox="0 0 39.56 39.56">
  <defs>
    <style>
      .cls-1 {
        fill: #fff;
      }

      .cls-2 {
        fill: none;
        stroke: #222221;
        stroke-miterlimit: 10;
        stroke-width: 1.5px;
      }

      .cls-3 {
        fill: #222221;
      }
    </style>
  </defs>
  <g>
    <path class="cls-1" d="m33.24,6.32c3.44,3.45,5.57,8.21,5.57,13.46s-2.13,10.01-5.57,13.46c-3.45,3.44-8.21,5.57-13.46,5.57C9.27,38.81.75,30.29.75,19.78c0-5.25,2.13-10.01,5.57-13.46C9.77,2.88,14.53.75,19.78.75s10.01,2.13,13.46,5.57Zm-3.03,13.46c0-2.84-.01-3.19-.06-4.3s-.23-1.87-.48-2.54c-.27-.68-.63-1.26-1.21-1.84s-1.16-.94-1.85-1.21c-.66-.26-1.42-.43-2.53-.48s-1.47-.07-4.3-.07-3.19.02-4.3.07-1.87.22-2.54.48c-.68.27-1.26.63-1.84,1.21s-.94,1.16-1.21,1.84c-.26.67-.43,1.43-.48,2.54s-.07,1.46-.07,4.3.02,3.19.07,4.3.22,1.87.48,2.53c.27.69.63,1.27,1.21,1.85s1.16.94,1.84,1.21c.67.25,1.43.43,2.54.48s1.47.06,4.3.06,3.19-.01,4.3-.06,1.87-.23,2.53-.48c.69-.27,1.27-.63,1.85-1.21s.94-1.16,1.21-1.85c.25-.66.43-1.42.48-2.53s.06-1.47.06-4.3Z"/>
    <path class="cls-3" d="m30.15,15.48c.05,1.11.06,1.46.06,4.3s-.01,3.19-.06,4.3-.23,1.87-.48,2.53c-.27.69-.63,1.27-1.21,1.85s-1.16.94-1.85,1.21c-.66.25-1.42.43-2.53.48s-1.47.06-4.3.06-3.19-.01-4.3-.06-1.87-.23-2.54-.48c-.68-.27-1.26-.63-1.84-1.21s-.94-1.16-1.21-1.85c-.26-.66-.43-1.42-.48-2.53s-.07-1.47-.07-4.3.02-3.19.07-4.3.22-1.87.48-2.54c.27-.68.63-1.26,1.21-1.84s1.16-.94,1.84-1.21c.67-.26,1.43-.43,2.54-.48s1.47-.07,4.3-.07,3.19.02,4.3.07,1.87.22,2.53.48c.69.27,1.27.63,1.85,1.21s.94,1.16,1.21,1.84c.25.67.43,1.43.48,2.54Zm-1.82,4.3c0-2.79-.01-3.12-.06-4.22-.04-1.02-.21-1.57-.36-1.94-.19-.48-.41-.83-.78-1.2s-.71-.59-1.2-.78c-.36-.14-.92-.31-1.93-.35-1.1-.06-1.43-.07-4.22-.07s-3.12.01-4.22.07c-1.01.04-1.57.21-1.93.35-.49.19-.84.42-1.2.78s-.6.72-.78,1.2c-.15.37-.32.92-.36,1.94-.05,1.1-.07,1.43-.07,4.22s.02,3.11.07,4.21c.04,1.02.21,1.57.36,1.94.18.49.41.84.78,1.2.36.37.71.59,1.2.78.36.15.92.32,1.93.36,1.1.05,1.43.06,4.22.06s3.12-.01,4.22-.06c1.01-.04,1.57-.21,1.93-.36.49-.19.84-.41,1.2-.78.37-.36.59-.71.78-1.2.15-.37.32-.92.36-1.94.05-1.1.06-1.43.06-4.21Z"/>
    <path class="cls-1" d="m28.27,15.56c.05,1.1.06,1.43.06,4.22s-.01,3.11-.06,4.21c-.04,1.02-.21,1.57-.36,1.94-.19.49-.41.84-.78,1.2-.36.37-.71.59-1.2.78-.36.15-.92.32-1.93.36-1.1.05-1.43.06-4.22.06s-3.12-.01-4.22-.06c-1.01-.04-1.57-.21-1.93-.36-.49-.19-.84-.41-1.2-.78-.37-.36-.6-.71-.78-1.2-.15-.37-.32-.92-.36-1.94-.05-1.1-.07-1.43-.07-4.21s.02-3.12.07-4.22c.04-1.02.21-1.57.36-1.94.18-.48.41-.83.78-1.2s.71-.59,1.2-.78c.36-.14.92-.31,1.93-.35,1.1-.06,1.43-.07,4.22-.07s3.12.01,4.22.07c1.01.04,1.57.21,1.93.35.49.19.84.42,1.2.78s.59.72.78,1.2c.15.37.32.92.36,1.94Zm-1.67-1.35c0-.69-.56-1.25-1.25-1.25s-1.25.56-1.25,1.25.56,1.25,1.25,1.25,1.25-.56,1.25-1.25Zm-1.46,5.57c0-2.96-2.4-5.36-5.36-5.36s-5.36,2.4-5.36,5.36,2.4,5.36,5.36,5.36,5.36-2.4,5.36-5.36Z"/>
    <circle class="cls-3" cx="25.35" cy="14.21" r="1.25"/>
    <path class="cls-3" d="m19.78,14.42c2.96,0,5.36,2.4,5.36,5.36s-2.4,5.36-5.36,5.36-5.36-2.4-5.36-5.36,2.4-5.36,5.36-5.36Zm3.48,5.36c0-1.92-1.56-3.48-3.48-3.48s-3.48,1.56-3.48,3.48,1.56,3.48,3.48,3.48,3.48-1.56,3.48-3.48Z"/>
    <circle class="cls-1" cx="19.78" cy="19.78" r="3.48"/>
  </g>
  <path class="cls-2" d="m19.78,38.81C9.27,38.81.75,30.29.75,19.78c0-5.25,2.13-10.01,5.57-13.46C9.77,2.88,14.53.75,19.78.75s10.01,2.13,13.46,5.57c3.44,3.45,5.57,8.21,5.57,13.46s-2.13,10.01-5.57,13.46c-3.45,3.44-8.21,5.57-13.46,5.57Z"/>
</svg>