<?xml version="1.0" encoding="UTF-8"?>
<svg id="Layer_1" data-name="Layer 1" xmlns="http://www.w3.org/2000/svg" viewBox="0 0 38.46 27.24">
  <defs>
    <style>
      .cls-1 {
        fill: #fff;
      }
    </style>
  </defs>
  <path class="cls-1" d="m37.41,4.42c.8,2.98.8,9.2.8,9.2,0,0,0,6.21-.8,9.19-.43,1.65-1.72,2.94-3.35,3.38-2.96.8-14.83.8-14.83.8,0,0-11.87,0-14.83-.8-1.63-.44-2.92-1.73-3.36-3.38C.25,19.83.25,13.62.25,13.62c0,0,0-6.22.79-9.2.44-1.64,1.73-2.94,3.36-3.37,2.96-.8,14.83-.8,14.83-.8,0,0,11.87,0,14.83.8,1.63.43,2.92,1.73,3.35,3.37Zm-22.06,14.84l9.92-5.64-9.92-5.65v11.29Z"/>
  <polygon points="25.27 13.62 15.35 19.26 15.35 7.97 25.27 13.62"/>
</svg>