<?xml version="1.0" encoding="UTF-8"?>
<svg id="Layer_1" data-name="Layer 1" xmlns="http://www.w3.org/2000/svg" viewBox="0 0 309.25 204.1">
  <defs>
    <style>
      .cls-1 {
        fill: #fff;
      }
    </style>
  </defs>
  <path class="cls-1" d="m0,174.87l14.99-17.2c14.18,14.7,33.85,24.4,54.32,24.4,25.84,0,41.16-12.87,41.16-32,0-20.11-14.26-26.52-32.85-34.64l-28.28-12.48c-18.35-7.83-39.87-21.74-39.87-50.7S35.68,0,71.46,0c23.34,0,44.15,10.11,57.98,24.39l-13.29,16.09c-12.06-11.39-26.5-18.46-44.69-18.46-22.08,0-36.71,11.14-36.71,28.75,0,18.97,17.17,26.06,32.59,32.58l28.06,12.14c22.78,9.79,40.56,23.37,40.56,52.64,0,31.1-25.7,55.95-67.1,55.95-27.63,0-51.66-11.28-68.87-29.23Z"/>
  <path class="cls-1" d="m163.04,102.22C163.04,38.72,200.46,0,250.42,0c23.9,0,42.63,11.62,54.15,24.28l-13.73,16.32c-10.36-11.05-23.37-18.57-39.98-18.57-37.21,0-61.94,30.48-61.94,79.53s23.63,80.51,60.96,80.51c18.79,0,33.07-8.18,45.64-22.11l13.73,15.71c-15.55,18.06-34.83,28.42-60.41,28.42-49.04,0-85.8-37.93-85.8-101.88Z"/>
</svg>